<svg width="62" height="36" viewBox="0 0 62 36" fill="none" xmlns="http://www.w3.org/2000/svg">
<path fill-rule="evenodd" clip-rule="evenodd" d="M6.84542 12.6979H13.4567C13.1943 11.1092 11.8142 9.89746 10.1511 9.89746C8.48795 9.89746 7.10784 11.1092 6.84542 12.6979ZM14.4672 12.6979H16.3022H17.3022V13.6979V26.0002V27.0002H16.3022H4H3V26.0002V13.6979V12.6979H4H5.83493C6.10533 10.5549 7.93465 8.89746 10.1511 8.89746C12.3675 8.89746 14.1968 10.5549 14.4672 12.6979ZM4 13.6979H16.3022V26.0002H4V13.6979Z" fill="#292933"/>
<rect x="24" width="38" height="36" rx="18" fill="#292933"/>
<path d="M39.5107 13.5991C40.0439 13.5991 40.5348 13.6816 40.9834 13.8467C41.4362 14.0117 41.798 14.2614 42.0688 14.5957C42.3397 14.9258 42.4751 15.3405 42.4751 15.8398C42.4751 16.2122 42.401 16.5381 42.2529 16.8174C42.109 17.0967 41.9123 17.3421 41.6626 17.5537C41.4129 17.7611 41.1294 17.943 40.812 18.0996C41.1421 18.2731 41.4552 18.4762 41.7515 18.709C42.0477 18.9375 42.2889 19.2062 42.4751 19.5151C42.6655 19.8241 42.7607 20.1838 42.7607 20.5942C42.7607 21.1105 42.6232 21.5591 42.3481 21.9399C42.0731 22.3166 41.6922 22.6086 41.2056 22.8159C40.7189 23.0233 40.154 23.127 39.5107 23.127C38.8167 23.127 38.2264 23.0275 37.7397 22.8286C37.2531 22.6297 36.8828 22.3462 36.6289 21.978C36.375 21.6056 36.248 21.1613 36.248 20.645C36.248 20.2218 36.3263 19.8537 36.4829 19.5405C36.6437 19.2274 36.8595 18.9587 37.1304 18.7344C37.4012 18.5059 37.6995 18.3112 38.0254 18.1504C37.7503 17.9769 37.4985 17.7801 37.27 17.5601C37.0457 17.34 36.8659 17.0882 36.7305 16.8047C36.5993 16.5212 36.5337 16.1953 36.5337 15.8271C36.5337 15.3363 36.6712 14.9258 36.9463 14.5957C37.2256 14.2656 37.5916 14.0181 38.0444 13.853C38.4972 13.6838 38.986 13.5991 39.5107 13.5991ZM38.0635 20.5308C38.0635 20.8651 38.182 21.1423 38.4189 21.3623C38.6602 21.5781 39.0156 21.686 39.4854 21.686C39.972 21.686 40.3359 21.5824 40.5771 21.375C40.8184 21.1634 40.939 20.8862 40.939 20.5435C40.939 20.3065 40.8691 20.0991 40.7295 19.9214C40.5941 19.7437 40.4227 19.585 40.2153 19.4453C40.008 19.3014 39.7985 19.1681 39.5869 19.0454L39.4155 18.9565C39.1447 19.0793 38.9077 19.2168 38.7046 19.3691C38.5057 19.5215 38.3491 19.6929 38.2349 19.8833C38.1206 20.0737 38.0635 20.2896 38.0635 20.5308ZM39.498 15.0337C39.1764 15.0337 38.9098 15.1162 38.6982 15.2812C38.4867 15.4463 38.3809 15.679 38.3809 15.9795C38.3809 16.1911 38.4316 16.3773 38.5332 16.5381C38.639 16.6947 38.7765 16.8322 38.9458 16.9507C39.1193 17.0692 39.3076 17.1792 39.5107 17.2808C39.7054 17.1877 39.8874 17.084 40.0566 16.9697C40.2259 16.8555 40.3634 16.7179 40.4692 16.5571C40.575 16.3963 40.6279 16.2038 40.6279 15.9795C40.6279 15.679 40.52 15.4463 40.3042 15.2812C40.0926 15.1162 39.8239 15.0337 39.498 15.0337ZM50.2002 17.6807C50.2002 18.2139 50.16 18.7428 50.0796 19.2676C50.0034 19.7923 49.868 20.2874 49.6733 20.7529C49.4787 21.2142 49.2057 21.6247 48.8545 21.9844C48.5033 22.3398 48.0568 22.6191 47.5151 22.8223C46.9735 23.0254 46.3175 23.127 45.5474 23.127C45.3654 23.127 45.1517 23.1185 44.9062 23.1016C44.6608 23.0889 44.4577 23.0677 44.2969 23.0381V21.4639C44.4661 21.5062 44.646 21.54 44.8364 21.5654C45.0269 21.5866 45.2194 21.5972 45.4141 21.5972C46.1885 21.5972 46.7852 21.4744 47.2041 21.229C47.6273 20.9836 47.9235 20.6429 48.0928 20.207C48.2663 19.7712 48.3657 19.2676 48.3911 18.6963H48.3149C48.1922 18.8994 48.0462 19.0835 47.877 19.2485C47.7119 19.4093 47.5003 19.5384 47.2422 19.6357C46.984 19.7288 46.6561 19.7754 46.2583 19.7754C45.7293 19.7754 45.2681 19.6611 44.8745 19.4326C44.4852 19.1999 44.1826 18.8656 43.9668 18.4297C43.7552 17.9896 43.6494 17.4585 43.6494 16.8364C43.6494 16.1636 43.7764 15.5881 44.0303 15.1099C44.2884 14.6274 44.6545 14.2572 45.1284 13.999C45.6024 13.7409 46.161 13.6118 46.8042 13.6118C47.2782 13.6118 47.7204 13.6943 48.1309 13.8594C48.5413 14.0202 48.901 14.2677 49.21 14.6021C49.5231 14.9364 49.7664 15.3595 49.9399 15.8716C50.1134 16.3836 50.2002 16.9867 50.2002 17.6807ZM46.8423 15.186C46.4614 15.186 46.1504 15.3172 45.9092 15.5796C45.668 15.842 45.5474 16.2524 45.5474 16.811C45.5474 17.2596 45.651 17.6151 45.8584 17.8774C46.0658 18.1398 46.381 18.271 46.8042 18.271C47.0962 18.271 47.3501 18.2075 47.5659 18.0806C47.7817 17.9494 47.9489 17.7865 48.0674 17.5918C48.1901 17.3929 48.2515 17.1898 48.2515 16.9824C48.2515 16.7666 48.2218 16.5529 48.1626 16.3413C48.1034 16.1297 48.0145 15.9372 47.896 15.7637C47.7775 15.5902 47.6294 15.4505 47.4517 15.3447C47.2782 15.2389 47.075 15.186 46.8423 15.186Z" fill="white"/>
</svg>
