<svg width="203" height="53" viewBox="0 0 203 53" fill="none" xmlns="http://www.w3.org/2000/svg">
<g clip-path="url(#clip0_11_57)">
<g opacity="0.6">
<path opacity="0.6" d="M20.6928 3.25588C20.6838 4.08475 20.9922 4.88567 21.5547 5.4945L21.7578 5.69767L24.3447 8.29214L25.6067 9.56414L25.6571 9.61462C25.869 9.85111 25.9783 10.162 25.9612 10.479C25.9626 10.6456 25.9309 10.8108 25.8681 10.965C25.8053 11.1193 25.7125 11.2596 25.5952 11.3779C25.4779 11.4961 25.3384 11.59 25.1846 11.654C25.0308 11.7181 24.8659 11.751 24.6993 11.751C24.3856 11.7506 24.0815 11.6428 23.8375 11.4456L23.1787 12.1069C23.5928 12.492 24.1352 12.7097 24.7006 12.7176C25.042 12.7137 25.3784 12.6341 25.6854 12.4847C25.9924 12.3352 26.2624 12.1196 26.4761 11.8532C26.6704 12.1045 26.9162 12.3113 27.1969 12.4598C27.4777 12.6083 27.7869 12.6951 28.1039 12.7143C28.421 12.7335 28.7384 12.6848 29.0351 12.5713C29.3317 12.4579 29.6007 12.2823 29.8239 12.0564L29.1652 11.3952C29.046 11.5143 28.9033 11.6074 28.7463 11.6686C28.5893 11.7299 28.4213 11.7579 28.2529 11.751C28.0863 11.751 27.9214 11.7181 27.7676 11.654C27.6139 11.59 27.4743 11.4961 27.357 11.3779C27.2397 11.2596 27.1469 11.1193 27.0841 10.965C27.0213 10.8108 26.9896 10.6456 26.991 10.479C27.0002 10.1419 27.1254 9.81835 27.3456 9.56288L28.6075 8.29088L31.2448 5.64088L31.3458 5.53867C31.932 4.92072 32.2586 4.10132 32.2582 3.24957C32.2593 2.82263 32.1761 2.39967 32.0133 2.00499C31.8505 1.61031 31.6113 1.2517 31.3095 0.949745C31.0076 0.647795 30.6491 0.408463 30.2545 0.245504C29.8599 0.0825443 29.4369 -0.000831301 29.01 0.000167811C28.5345 -0.00473698 28.064 0.0979346 27.6337 0.300504C27.2034 0.503074 26.8245 0.8003 26.5253 1.16995C26.2088 0.807327 25.8192 0.515666 25.3821 0.314075C24.945 0.112485 24.4702 0.00551334 23.9889 0.000167811C23.1205 -0.00386598 22.2859 0.336566 21.668 0.946847C21.0502 1.55713 20.6995 2.38747 20.6928 3.25588ZM26.7285 3.76064C26.6528 3.80643 26.5635 3.82429 26.4761 3.81112C26.3889 3.8189 26.3012 3.80138 26.2237 3.76064C26.1393 3.71511 26.0675 3.64951 26.0144 3.56962C25.9614 3.48973 25.9288 3.39802 25.9196 3.30257C25.9178 3.23574 25.9305 3.16931 25.9569 3.10787C25.9832 3.04643 26.0226 2.99144 26.0723 2.94672L26.1228 2.89624L26.2237 2.79402L26.4761 2.54164L26.7285 2.79402L26.779 2.8445L26.9317 2.99719C26.9878 3.09013 27.0223 3.1945 27.0326 3.30257C27.0278 3.39972 26.9971 3.49381 26.9436 3.57504C26.8901 3.65627 26.8158 3.72167 26.7285 3.76443V3.76064ZM21.6569 3.25588C21.6557 2.94896 21.7152 2.64482 21.8319 2.36094C21.9486 2.07706 22.1202 1.81902 22.3369 1.60164C22.5535 1.38426 22.811 1.21181 23.0945 1.09421C23.378 0.976597 23.682 0.916142 23.9889 0.916311C24.6181 0.926518 25.2184 1.18187 25.6622 1.62802L25.8149 1.78072L25.4603 2.13657L25.4098 2.18705C25.2782 2.32131 25.1745 2.48033 25.1048 2.65491C25.035 2.82949 25.0006 3.01617 25.0035 3.20414C25.0058 3.41688 25.0581 3.62609 25.1562 3.81491C25.3094 4.1344 25.5575 4.39881 25.8666 4.57205C25.9171 4.62252 26.0193 4.62252 26.0698 4.67426C26.2009 4.71604 26.3387 4.73316 26.4761 4.72474C26.6136 4.73655 26.752 4.71935 26.8824 4.67426C26.959 4.66182 27.03 4.62614 27.0856 4.57205C27.4053 4.41271 27.6574 4.1441 27.7961 3.81491C27.8941 3.62609 27.9464 3.41688 27.9487 3.20414C27.9493 3.00447 27.9091 2.80679 27.8305 2.62321C27.752 2.43964 27.6368 2.27404 27.4919 2.13657L27.1285 1.78072L27.3809 1.62802C27.7093 1.30523 28.126 1.08701 28.5783 1.00091C29.0307 0.914821 29.4984 0.964724 29.9224 1.14432C30.3464 1.32391 30.7077 1.62514 30.9606 2.00996C31.2135 2.39477 31.3466 2.8459 31.3433 3.30636C31.347 3.60783 31.2907 3.90704 31.1776 4.18652C31.0645 4.466 30.8969 4.72017 30.6846 4.93422L30.4322 5.13738L29.7735 5.79862L29.0163 6.55576L26.779 8.79943L26.5758 9.0026C26.5253 9.05307 26.5253 9.10481 26.4748 9.10481C26.4244 9.05433 26.4244 9.0026 26.3739 8.95212L26.2212 8.79943L23.9384 6.51033L22.3156 4.88248C22.1034 4.66859 21.9359 4.41462 21.8228 4.13536C21.7097 3.85611 21.6533 3.55715 21.6569 3.25588Z" fill="#FF417A"/>
</g>
<path d="M48.3322 10.5282C47.7785 9.97492 47.109 9.55114 46.372 9.28735C45.6349 9.02356 44.8486 8.92631 44.0695 9.0026H43.9168V8.84991C44.0315 7.75968 43.8047 6.66073 43.2677 5.70501C42.7307 4.74928 41.9101 3.984 40.9192 3.51497C39.9284 3.04594 38.8163 2.89633 37.7367 3.08684C36.6571 3.27734 35.6634 3.79854 34.8929 4.57837C34.4199 5.04427 34.0412 5.59697 33.7774 6.20622C33.5243 6.82256 33.3701 7.47501 33.3206 8.13946V17.9546C33.2829 18.4791 33.0474 18.9698 32.6619 19.3275C32.2441 19.743 31.6788 19.9762 31.0895 19.9762C30.5003 19.9762 29.935 19.743 29.5172 19.3275C29.1505 18.9562 28.9186 18.4729 28.8585 17.9546H27.5385C27.5837 18.8154 27.9428 19.6298 28.5481 20.2436C28.9379 20.6276 29.4095 20.9186 29.9276 21.0947C30.4457 21.2708 30.9969 21.3276 31.54 21.2607H31.7028V21.4134C31.6234 21.9578 31.6734 22.5132 31.8488 23.0345C32.0242 23.5559 32.3201 24.0286 32.7123 24.4142C33.3629 25.0603 34.2307 25.4408 35.1466 25.4818V24.1606C34.5926 24.124 34.0703 23.8893 33.6752 23.4994C33.4539 23.2893 33.2771 23.037 33.155 22.7574C33.033 22.4778 32.9683 22.1766 32.9647 21.8715C32.9666 21.2792 33.2035 20.7119 33.6234 20.2941C34.0584 19.872 34.6401 19.635 35.2463 19.6329H44.679C45.3706 19.6328 46.055 19.4931 46.6912 19.222C47.3274 18.951 47.9023 18.5542 48.3814 18.0555C48.8801 17.5637 49.2759 16.9776 49.5458 16.3314C49.8158 15.6851 49.9544 14.9916 49.9538 14.2912C49.9128 12.8761 49.3327 11.53 48.3322 10.5282ZM47.4198 17.1406C46.7002 17.8507 45.7421 18.2677 44.732 18.3104H34.5875V8.34137C34.5846 7.81321 34.6861 7.28968 34.8862 6.80089C35.0863 6.3121 35.3811 5.8677 35.7535 5.49325C36.1205 5.11883 36.5584 4.82138 37.0417 4.61832C37.525 4.41526 38.044 4.31067 38.5682 4.31067C39.0925 4.31067 39.6114 4.41526 40.0947 4.61832C40.578 4.82138 41.016 5.11883 41.3829 5.49325C41.7664 5.88083 42.0674 6.34206 42.2678 6.84912C42.4681 7.35617 42.5638 7.89856 42.5489 8.44358V8.94834H41.5848C41.2804 8.95218 40.9799 9.01716 40.7011 9.13942C40.4224 9.26168 40.171 9.43874 39.962 9.66006C39.731 9.89754 39.5423 10.1728 39.4042 10.474C39.2013 11.015 39.2013 11.6113 39.4042 12.1523L39.5569 12.4577C39.6629 12.6638 39.7999 12.8523 39.9633 13.0167C40.11 13.1632 40.2807 13.2836 40.468 13.3726H40.5185L40.8226 13.5253C41.3444 13.7287 41.9236 13.7287 42.4454 13.5253C42.7495 13.4183 43.0264 13.246 43.2568 13.0205C43.4829 12.8036 43.6625 12.5429 43.7846 12.2544C43.9068 11.9659 43.9689 11.6555 43.9673 11.3422V10.32L44.12 10.2696H44.6247C45.1521 10.2668 45.6747 10.3687 46.1623 10.5695C46.65 10.7704 47.0928 11.066 47.4653 11.4393C48.2043 12.2071 48.6133 13.2337 48.6048 14.2992C48.5963 15.3648 48.171 16.3847 47.4198 17.1406ZM42.6019 10.2746V11.4444C42.5545 11.6806 42.4292 11.8941 42.2463 12.0507C42.0633 12.2074 41.833 12.2983 41.5924 12.3088C41.4884 12.317 41.384 12.2996 41.2883 12.2583C41.1355 12.2053 40.9967 12.1183 40.8826 12.0037C40.7685 11.8891 40.6819 11.7501 40.6295 11.5971C40.58 11.4202 40.5772 11.2335 40.6214 11.0552C40.6657 10.8769 40.7554 10.7132 40.8819 10.58C41.056 10.4 41.2908 10.2912 41.5406 10.2746H42.6057H42.6019Z" fill="#FF417A"/>
<g opacity="0.6">
<path opacity="0.6" d="M49.7519 20.7521C48.9249 20.7438 48.1263 21.0532 47.5208 21.6165L47.3176 21.8197L44.7358 24.4116L43.4739 25.6836L43.4234 25.7341C43.3069 25.8393 43.1708 25.9204 43.0229 25.9728C42.875 26.0252 42.7182 26.0479 42.5615 26.0395C42.395 26.0395 42.23 26.0065 42.0763 25.9425C41.9225 25.8784 41.7829 25.7846 41.6656 25.6663C41.5483 25.5481 41.4556 25.4078 41.3928 25.2535C41.3299 25.0992 41.2983 24.9341 41.2996 24.7675C41.2946 24.4572 41.3937 24.1542 41.581 23.9069L40.9223 23.2456C40.5383 23.6618 40.3217 24.2051 40.3141 24.7713C40.3178 25.1132 40.3969 25.4501 40.5459 25.7579C40.6949 26.0657 40.91 26.3368 41.176 26.5518C40.9254 26.7476 40.7193 26.9944 40.5713 27.2758C40.4233 27.5573 40.3369 27.867 40.3177 28.1844C40.2984 28.5018 40.3469 28.8196 40.4599 29.1169C40.5728 29.4141 40.7476 29.6839 40.9728 29.9085L41.6315 29.2473C41.5125 29.1272 41.4196 28.9838 41.3586 28.8262C41.2976 28.6685 41.2698 28.5 41.2769 28.3311C41.2756 28.1646 41.3072 27.9994 41.37 27.8451C41.4329 27.6908 41.5256 27.5505 41.6429 27.4323C41.7602 27.314 41.8998 27.2202 42.0536 27.1561C42.2073 27.0921 42.3722 27.0591 42.5388 27.0591C42.8749 27.0689 43.1973 27.1946 43.4512 27.415L44.7131 28.687L47.3505 31.337L47.4514 31.4392C48.066 32.027 48.8837 32.3552 49.7342 32.3553C50.1615 32.356 50.5846 32.2722 50.9794 32.1087C51.3741 31.9452 51.7326 31.7052 52.0343 31.4026C52.3359 31.1 52.5747 30.7408 52.737 30.3455C52.8993 29.9503 52.9818 29.5269 52.9798 29.0996C52.9852 28.6233 52.8832 28.1519 52.6813 27.7204C52.4795 27.2889 52.1829 26.9085 51.8138 26.6074C52.1746 26.2991 52.4654 25.9172 52.6665 25.4874C52.8676 25.0575 52.9744 24.5896 52.9798 24.1151C53.0015 23.6791 52.9339 23.2433 52.7811 22.8344C52.6283 22.4256 52.3935 22.0522 52.0913 21.7373C51.789 21.4224 51.4256 21.1726 51.0233 21.0031C50.621 20.8337 50.1883 20.7483 49.7519 20.7521ZM49.295 26.7537C49.2493 26.6781 49.2314 26.5888 49.2446 26.5014C49.237 26.4141 49.2545 26.3266 49.295 26.249C49.3402 26.1644 49.4055 26.0924 49.4852 26.0391C49.5649 25.9858 49.6565 25.953 49.7519 25.9436C49.8185 25.9418 49.8847 25.9545 49.946 25.9809C50.0072 26.0072 50.062 26.0466 50.1065 26.0963L50.1569 26.1468L50.2579 26.249L50.5103 26.5014L50.2579 26.7537L50.2074 26.8559L50.0547 26.9582C49.9623 27.0147 49.8584 27.0496 49.7506 27.0604C49.6528 27.0607 49.5572 27.0317 49.4762 26.977C49.3952 26.9223 49.3325 26.8445 49.2963 26.7537H49.295ZM49.7519 21.667C50.0589 21.6665 50.3631 21.7267 50.6468 21.8442C50.9305 21.9617 51.1882 22.1341 51.4051 22.3515C51.6219 22.5689 51.7936 22.8271 51.9103 23.1111C52.0271 23.3952 52.0864 23.6995 52.0851 24.0066C52.0752 24.637 51.8204 25.2389 51.3747 25.6849L51.222 25.8376L50.8674 25.4817L50.8169 25.4313C50.6838 25.3002 50.5261 25.1969 50.3528 25.1271C50.1795 25.0574 49.9941 25.0227 49.8074 25.0249C49.5954 25.0273 49.3871 25.0796 49.1991 25.1776C48.8795 25.3312 48.615 25.5798 48.442 25.8893C48.3915 25.9398 48.3915 26.042 48.3411 26.0925C48.2995 26.2237 48.2824 26.3614 48.2906 26.4988C48.279 26.6363 48.2962 26.7747 48.3411 26.9052C48.3536 26.9815 48.3888 27.0522 48.442 27.1083C48.601 27.4286 48.8697 27.6811 49.1991 27.82C49.3871 27.9181 49.5954 27.9704 49.8074 27.9727C50.0068 27.9733 50.2042 27.9329 50.3874 27.8542C50.5706 27.7754 50.7357 27.6598 50.8724 27.5147L51.227 27.1588L51.4302 27.362C51.8513 27.7994 52.0873 28.3826 52.0889 28.9898C52.0901 29.2969 52.0306 29.6011 51.9138 29.8851C51.797 30.169 51.6253 30.4271 51.4085 30.6445C51.1917 30.8619 50.934 31.0343 50.6504 31.1519C50.3668 31.2694 50.0627 31.3297 49.7556 31.3294C49.4547 31.3332 49.156 31.2766 48.8773 31.1631C48.5986 31.0495 48.3454 30.8812 48.1328 30.6682L47.9297 30.465L47.271 29.8038L46.5138 29.0466L44.2752 26.8093L44.072 26.6061C44.0215 26.5556 43.9711 26.5556 43.9711 26.5039C44.0215 26.4534 44.072 26.4534 44.1238 26.4017L44.2765 26.249L46.5592 23.9599L48.1821 22.332C48.3841 22.1195 48.6278 21.9509 48.8979 21.8367C49.1679 21.7225 49.4586 21.6652 49.7519 21.6683V21.667Z" fill="#FF417A"/>
</g>
<g opacity="0.6">
<path opacity="0.6" d="M3.24566 32.3489C4.07392 32.3558 4.87314 32.0441 5.47797 31.4782L5.68114 31.275L8.26804 28.6805L9.52995 27.4085L9.58042 27.3581C9.69689 27.2529 9.83299 27.1718 9.9809 27.1194C10.1288 27.067 10.2856 27.0443 10.4423 27.0527C10.6089 27.0527 10.7738 27.0856 10.9276 27.1497C11.0813 27.2137 11.2209 27.3076 11.3382 27.4258C11.4555 27.5441 11.5482 27.6844 11.6111 27.8387C11.6739 27.9929 11.7055 28.1581 11.7042 28.3247C11.7036 28.6389 11.5964 28.9437 11.4001 29.1891L12.0588 29.8503C12.4428 29.4342 12.6594 28.8908 12.667 28.3247C12.6629 27.9858 12.5846 27.6519 12.4377 27.3465C12.2907 27.041 12.0787 26.7715 11.8165 26.5567C12.0671 26.361 12.2732 26.1142 12.4212 25.8328C12.5691 25.5513 12.6556 25.2416 12.6748 24.9242C12.694 24.6068 12.6455 24.289 12.5326 23.9917C12.4197 23.6945 12.2448 23.4246 12.0197 23.2001L11.3572 23.855C11.4762 23.9751 11.5691 24.1184 11.6301 24.2761C11.6911 24.4337 11.7189 24.6023 11.7118 24.7711C11.7131 24.9377 11.6815 25.1029 11.6186 25.2572C11.5558 25.4114 11.4631 25.5517 11.3458 25.67C11.2285 25.7882 11.0889 25.8821 10.9351 25.9461C10.7814 26.0102 10.6164 26.0432 10.4499 26.0431C10.1138 26.0334 9.79144 25.9077 9.53752 25.6873L8.27561 24.4153L5.63823 21.7653L5.53728 21.6631C4.91964 21.075 4.0985 20.7485 3.24566 20.752C2.8184 20.7513 2.39523 20.8351 2.00049 20.9986C1.60575 21.1621 1.24724 21.4021 0.945592 21.7047C0.643943 22.0073 0.405109 22.3665 0.242834 22.7618C0.080558 23.157 -0.00195533 23.5804 4.174e-05 24.0077C-0.0053604 24.484 0.0966634 24.9555 0.29853 25.3869C0.500396 25.8184 0.796913 26.1988 1.16604 26.5C0.654234 26.9368 0.287119 27.5187 0.113272 28.1688C-0.0605752 28.8188 -0.032961 29.5063 0.192461 30.1403C0.417883 30.7743 0.830487 31.3249 1.37568 31.7193C1.92088 32.1137 2.57296 32.3332 3.24566 32.3489ZM3.75042 26.2917C3.79621 26.3674 3.81407 26.4567 3.8009 26.5441C3.80847 26.6313 3.79096 26.7189 3.75042 26.7965C3.70525 26.881 3.63993 26.9531 3.56025 27.0064C3.48057 27.0597 3.38899 27.0925 3.29361 27.1019C3.22697 27.1037 3.16073 27.091 3.09949 27.0646C3.03826 27.0382 2.9835 26.9989 2.93902 26.9492L2.88854 26.8987L2.78885 26.8091L2.53647 26.5567L2.78885 26.3044L2.83933 26.2539L2.99202 26.1012C3.0844 26.0447 3.18836 26.0097 3.29614 25.999C3.39166 26.0038 3.48422 26.0337 3.56444 26.0858C3.64466 26.1379 3.70969 26.2102 3.75295 26.2955L3.75042 26.2917ZM3.24566 31.3785C2.9389 31.379 2.63506 31.3189 2.35159 31.2016C2.06811 31.0844 1.81058 30.9123 1.59379 30.6953C1.37699 30.4783 1.2052 30.2206 1.08827 29.937C0.971333 29.6534 0.911568 29.3495 0.912399 29.0427C0.922291 28.4122 1.17708 27.8103 1.62285 27.3644L1.77554 27.2117L2.13014 27.5675L2.18061 27.618C2.31369 27.7491 2.47142 27.8525 2.6447 27.9222C2.81798 27.992 3.00336 28.0267 3.19014 28.0243C3.40207 28.022 3.61046 27.9697 3.79838 27.8717C4.11805 27.7181 4.38249 27.4695 4.55552 27.1599C4.60599 27.1095 4.60599 27.0072 4.65647 26.9568C4.69805 26.8256 4.71516 26.6878 4.70695 26.5504C4.71849 26.413 4.7013 26.2746 4.65647 26.1441C4.64392 26.0678 4.60875 25.997 4.55552 25.9409C4.39651 25.6207 4.12784 25.3681 3.79838 25.2292C3.61046 25.1312 3.40207 25.0789 3.19014 25.0765C2.99072 25.076 2.7933 25.1163 2.61011 25.1951C2.42691 25.2739 2.26183 25.3894 2.12509 25.5346L1.77049 25.8905L1.56733 25.6873C1.14618 25.2498 0.910196 24.6667 0.908613 24.0594C0.907449 23.7524 0.96696 23.4482 1.08373 23.1642C1.2005 22.8802 1.37222 22.6221 1.58903 22.4047C1.80584 22.1873 2.06347 22.0149 2.34712 21.8974C2.63077 21.7799 2.93484 21.7195 3.24188 21.7199C3.54283 21.7161 3.84149 21.7726 4.12022 21.8862C4.39895 21.9998 4.65209 22.1681 4.86468 22.3811L5.06785 22.5843L5.72657 23.2455L6.48371 24.0026L8.71476 26.2413L8.91792 26.4444C8.9684 26.4949 9.01888 26.4949 9.01888 26.5466C8.9684 26.5971 8.91792 26.5971 8.86618 26.6489L8.71349 26.8016L6.43576 29.0932L4.81799 30.721C4.61856 30.9374 4.37497 31.1085 4.1037 31.2225C3.83243 31.3366 3.53981 31.3911 3.24566 31.3823V31.3785Z" fill="#FF417A"/>
</g>
<g opacity="0.6">
<path opacity="0.6" d="M32.2556 49.7481C32.2646 48.9193 31.9562 48.1184 31.3937 47.5095L31.241 47.3064L28.6541 44.7119L27.3922 43.4399L27.3417 43.3894C27.1299 43.1529 27.0205 42.842 27.0376 42.525C27.0363 42.3584 27.068 42.1933 27.1308 42.039C27.1936 41.8847 27.2863 41.7444 27.4036 41.6262C27.521 41.5079 27.6605 41.4141 27.8143 41.35C27.968 41.286 28.133 41.253 28.2995 41.253C28.6133 41.2534 28.9174 41.3612 29.1614 41.5584L29.8201 40.8972C29.4061 40.512 28.8637 40.2943 28.2983 40.2864C27.9568 40.2903 27.6205 40.3699 27.3135 40.5194C27.0065 40.6688 26.7365 40.8845 26.5228 41.1508C26.3285 40.8996 26.0827 40.6928 25.802 40.5443C25.5212 40.3958 25.212 40.309 24.8949 40.2897C24.5779 40.2705 24.2605 40.3192 23.9638 40.4327C23.6672 40.5462 23.3982 40.7217 23.1749 40.9476L23.8337 41.6089C23.9529 41.4898 24.0955 41.3966 24.2526 41.3354C24.4096 41.2742 24.5776 41.2461 24.746 41.253C24.9126 41.253 25.0775 41.286 25.2313 41.35C25.385 41.4141 25.5246 41.5079 25.6419 41.6262C25.7592 41.7444 25.8519 41.8847 25.9148 42.039C25.9776 42.1933 26.0092 42.3584 26.0079 42.525C25.9987 42.8621 25.8734 43.1857 25.6533 43.4412L24.3346 44.7132L21.7023 47.3505L21.6013 47.4527C21.015 48.0729 20.6897 48.8947 20.6928 49.7481C20.6908 50.1754 20.7733 50.5988 20.9356 50.9941C21.0978 51.3893 21.3367 51.7486 21.6383 52.0512C21.94 52.3538 22.2985 52.5937 22.6932 52.7572C23.088 52.9207 23.5111 53.0045 23.9384 53.0039C24.4139 53.0088 24.8844 52.9061 25.3147 52.7035C25.745 52.501 26.1239 52.2037 26.4231 51.8341C26.7294 52.1955 27.1097 52.487 27.5384 52.6888C27.967 52.8906 28.434 52.9981 28.9078 53.0039C29.3427 53.015 29.7754 52.939 30.1806 52.7805C30.5858 52.622 30.9551 52.3841 31.267 52.0807C31.5789 51.7774 31.827 51.4148 31.9968 51.0143C32.1666 50.6137 32.2546 50.1832 32.2556 49.7481ZM26.2199 49.2434C26.2956 49.1976 26.3849 49.1798 26.4723 49.1929C26.5595 49.1851 26.6472 49.2027 26.7247 49.2434C26.8091 49.2889 26.8809 49.3545 26.934 49.4344C26.987 49.5143 27.0196 49.606 27.0288 49.7015C27.0306 49.7683 27.0179 49.8347 26.9915 49.8962C26.9652 49.9576 26.9258 50.0126 26.8761 50.0573L26.8256 50.1078L26.7247 50.21L26.4723 50.4624L26.2199 50.21L26.1694 50.1595L26.018 50.0005C25.9619 49.9076 25.9274 49.8032 25.9171 49.6952C25.9688 49.5144 26.075 49.354 26.2212 49.2358L26.2199 49.2434ZM31.342 49.7481C31.3431 50.0552 31.2836 50.3594 31.1669 50.6434C31.0501 50.9274 30.8784 51.1854 30.6616 51.4028C30.4448 51.6202 30.1871 51.7927 29.9035 51.9102C29.6198 52.0277 29.3158 52.0881 29.0087 52.0877C28.3795 52.0777 27.7791 51.8223 27.3354 51.376L27.1827 51.2233L27.5373 50.8675L27.5878 50.817C27.7194 50.6827 27.8231 50.5237 27.8928 50.3491C27.9626 50.1745 27.997 49.9879 27.9941 49.7999C27.9918 49.5872 27.9395 49.3779 27.8415 49.1891C27.6882 48.8696 27.4401 48.6052 27.131 48.432C27.0805 48.3815 26.9783 48.3815 26.9278 48.3298C26.7967 48.288 26.6589 48.2709 26.5215 48.2793C26.384 48.2675 26.2456 48.2847 26.1152 48.3298C26.0386 48.3422 25.9677 48.3779 25.912 48.432C25.5923 48.5913 25.3402 48.8599 25.2016 49.1891C25.1035 49.3779 25.0512 49.5872 25.0489 49.7999C25.0483 49.9996 25.0885 50.1973 25.1671 50.3808C25.2456 50.5644 25.3609 50.73 25.5057 50.8675L25.8603 51.2233L25.6571 51.4265C25.3283 51.7467 24.9123 51.9627 24.4613 52.0473C24.0102 52.1319 23.5442 52.0814 23.1217 51.9021C22.6993 51.7228 22.3392 51.4228 22.0866 51.0396C21.8341 50.6563 21.7004 50.2071 21.7023 49.7481C21.6986 49.4467 21.7549 49.1475 21.868 48.868C21.9811 48.5885 22.1487 48.3343 22.361 48.1203L22.5642 47.9171L23.2229 47.2559L23.98 46.4987L26.2111 44.2601L26.4142 44.057C26.4647 44.0065 26.4647 43.9548 26.5152 43.9548C26.5657 44.0052 26.5657 44.057 26.6162 44.1074L26.7688 44.2601L29.0516 46.5492L30.6744 48.1771C30.8915 48.3762 31.0634 48.6193 31.1788 48.8903C31.2941 49.1612 31.3502 49.4537 31.3432 49.7481H31.342Z" fill="#FF417A"/>
</g>
<path d="M24.0898 17.9546C24.0521 18.4792 23.8167 18.9699 23.4311 19.3276C23.2263 19.537 22.9817 19.7034 22.7117 19.8169C22.4417 19.9305 22.1517 19.989 21.8588 19.989C21.5659 19.989 21.2759 19.9305 21.0059 19.8169C20.7359 19.7034 20.4913 19.537 20.2864 19.3276C19.9197 18.9563 19.6879 18.473 19.6277 17.9546V8.13826C19.5699 6.79616 19.0085 5.52512 18.0554 4.57843C17.3101 3.83807 16.3624 3.3347 15.3317 3.13166C14.3009 2.92862 13.2332 3.03499 12.2628 3.43737C11.2923 3.83976 10.4626 4.52019 9.87798 5.39304C9.29336 6.26589 8.97997 7.29215 8.97725 8.34269V8.95345H8.77408C8.03652 8.88345 7.29246 8.96801 6.58941 9.20174C5.88636 9.43546 5.23978 9.81322 4.69093 10.3109C4.14209 10.8085 3.70304 11.4152 3.40183 12.0921C3.10062 12.769 2.94386 13.5012 2.94156 14.2421C2.93602 14.9432 3.07247 15.6381 3.3427 16.2851C3.61292 16.932 4.01132 17.5175 4.51389 18.0064C5.509 18.974 6.82908 19.536 8.21632 19.5825H17.6491C18.2532 19.5943 18.8315 19.8299 19.2719 20.2437C19.6865 20.664 19.9189 21.2307 19.9189 21.8211C19.9189 22.4115 19.6865 22.9782 19.2719 23.3985C18.8767 23.7884 18.3544 24.0231 17.8005 24.0597V25.3822C18.2566 25.3734 18.7064 25.2745 19.1241 25.0913C19.5419 24.9081 19.9193 24.6441 20.2347 24.3146C20.627 23.929 20.9229 23.4563 21.0983 22.9349C21.2737 22.4135 21.3237 21.8581 21.2442 21.3138V21.1599H21.3969C21.94 21.2267 22.4912 21.1699 23.0093 20.9938C23.5274 20.8177 23.999 20.5268 24.3889 20.1428C24.9941 19.5289 25.3533 18.7145 25.3984 17.8537H24.0898V17.9546ZM10.3464 10.2747H11.4619C11.587 10.2766 11.7103 10.3047 11.8238 10.3573C11.9373 10.4099 12.0384 10.4858 12.1207 10.5801C12.2471 10.7132 12.3369 10.877 12.3811 11.0553C12.4254 11.2336 12.4226 11.4203 12.373 11.5971C12.3206 11.7501 12.2341 11.8892 12.12 12.0038C12.0058 12.1183 11.8671 12.2054 11.7143 12.2584C11.6186 12.2997 11.5142 12.317 11.4102 12.3089C11.2774 12.3077 11.1462 12.2801 11.0242 12.2277C10.9023 12.1752 10.792 12.099 10.6998 12.0035C10.5505 11.8475 10.4455 11.6545 10.3956 11.4445V11.1391L10.3464 10.2747ZM18.2081 18.3622H8.2668C7.2567 18.3195 6.29862 17.9025 5.57894 17.1924C4.82392 16.4369 4.3998 15.4125 4.3998 14.3443C4.3998 13.2762 4.82392 12.2517 5.57894 11.4962C5.95139 11.1229 6.39427 10.8272 6.88189 10.6264C7.3695 10.4256 7.89215 10.3236 8.41949 10.3264H9.0782V11.3435C9.08487 11.9747 9.34016 12.5777 9.78866 13.0218C10.014 13.2537 10.2925 13.4269 10.6001 13.5266C11.1219 13.7301 11.7011 13.7301 12.2229 13.5266L12.527 13.3739L12.5775 13.3234C12.7424 13.2219 12.8964 13.1035 13.0368 12.9701C13.2001 12.8057 13.3372 12.6172 13.4431 12.4111L13.5958 12.1057C13.7987 11.5646 13.7987 10.9684 13.5958 10.4274C13.4768 10.1285 13.3059 9.85292 13.0911 9.61343C12.6424 9.20529 12.0724 8.95531 11.4683 8.90172H10.4587V8.39696C10.4324 7.59852 10.6467 6.81061 11.0739 6.13553C11.501 5.46045 12.1213 4.92938 12.8541 4.61128C13.5869 4.29318 14.3984 4.20274 15.1832 4.3517C15.9681 4.50066 16.6901 4.88215 17.2553 5.44662C17.6278 5.82107 17.9226 6.26547 18.1227 6.75426C18.3228 7.24305 18.4243 7.76658 18.4213 8.29474V17.8537C18.4132 17.958 18.4306 18.0628 18.4718 18.1591V18.3117L18.2081 18.3622Z" fill="#FF417A"/>
<path d="M24.3939 32.8073C24.0134 32.4102 23.5429 32.1104 23.0222 31.9334C22.5014 31.7563 21.9457 31.7072 21.4019 31.7902H21.2493V31.6375C21.3287 31.0932 21.2787 30.5378 21.1033 30.0164C20.9279 29.495 20.632 29.0224 20.2397 28.6367C19.922 28.3139 19.543 28.0577 19.1251 27.883C18.7071 27.7084 18.2585 27.6188 17.8055 27.6196V28.9421C18.3595 28.9787 18.8817 29.2134 19.2769 29.6034C19.6915 30.0237 19.924 30.5903 19.924 31.1807C19.924 31.7711 19.6915 32.3378 19.2769 32.7581C19.0682 32.9763 18.8157 33.148 18.5361 33.262C18.2564 33.3759 17.9559 33.4296 17.6541 33.4194H8.26678C7.57523 33.4194 6.89081 33.5591 6.25459 33.8302C5.61837 34.1013 5.04346 34.498 4.56435 34.9967C3.78826 35.7698 3.27004 36.7638 3.08063 37.8427C2.89123 38.9217 3.03988 40.0328 3.50626 41.0239C3.97263 42.0151 4.73393 42.8379 5.68595 43.3798C6.63797 43.9217 7.73418 44.156 8.82454 44.0509H8.97723V44.2036C8.86083 45.2953 9.08699 46.3962 9.62434 47.3536C10.1617 48.3109 10.9836 49.0774 11.9761 49.5467C12.9687 50.016 14.0826 50.1649 15.1636 49.9726C16.2445 49.7804 17.2388 49.2566 18.0087 48.4739C18.9614 47.5248 19.521 46.2514 19.576 44.9077V35.0964C19.6467 34.5812 19.877 34.101 20.2347 33.7235C20.6525 33.308 21.2178 33.0747 21.807 33.0747C22.3963 33.0747 22.9615 33.308 23.3794 33.7235C23.586 33.891 23.7557 34.0995 23.878 34.3357C24.0002 34.572 24.0724 34.831 24.0898 35.0964H25.4085C25.362 34.2349 25.001 33.4204 24.3939 32.8073ZM18.3078 34.8415V44.7601C18.3107 45.2883 18.2092 45.8118 18.0091 46.3006C17.809 46.7894 17.5142 47.2338 17.1418 47.6082C16.384 48.3541 15.3645 48.774 14.3012 48.778C13.2399 48.7643 12.2238 48.3459 11.4607 47.6082C11.0772 47.2206 10.7762 46.7594 10.5758 46.2523C10.3754 45.7453 10.2798 45.2029 10.2947 44.6579V44.1531H11.3597C11.6641 44.1493 11.9646 44.0843 12.2434 43.962C12.5222 43.8398 12.7735 43.6627 12.9825 43.4414C13.2144 43.2152 13.3877 42.9358 13.4873 42.6275C13.6895 42.0863 13.6895 41.4903 13.4873 40.9491L13.3346 40.6438C13.2286 40.4377 13.0916 40.2491 12.9283 40.0847C12.7815 39.9383 12.6108 39.8179 12.4235 39.7289V39.6784L12.1194 39.5257C11.5976 39.3223 11.0184 39.3223 10.4966 39.5257C10.186 39.6459 9.90806 39.8374 9.68516 40.0847C9.45908 40.3017 9.2795 40.5623 9.15736 40.8508C9.03522 41.1394 8.97308 41.4498 8.97471 41.7631V42.7802L8.82202 42.8306H8.31726C7.52644 42.8337 6.75251 42.6019 6.09361 42.1646C5.43471 41.7273 4.92052 41.1042 4.61624 40.3742C4.31197 39.6443 4.23131 38.8404 4.3845 38.0646C4.53769 37.2887 4.91783 36.5759 5.47671 36.0163C6.19619 35.3047 7.1548 34.8864 8.16583 34.8428H18.309L18.3078 34.8415ZM10.2947 41.6066C10.3331 41.3923 10.4398 41.1962 10.5988 41.0476C10.7309 40.9218 10.8933 40.8325 11.0703 40.7882C11.2472 40.744 11.4326 40.7464 11.6083 40.7952C11.7611 40.8482 11.8998 40.9352 12.014 41.0498C12.1281 41.1644 12.2146 41.3034 12.267 41.4564C12.3166 41.6333 12.3194 41.82 12.2751 41.9983C12.2309 42.1766 12.1411 42.3403 12.0146 42.4735C11.8344 42.6446 11.603 42.7519 11.3559 42.7789H10.2909L10.2947 41.6066Z" fill="#FF417A"/>
<path d="M48.3323 34.9955C47.8491 34.5022 47.2734 34.1089 46.6381 33.8383C46.0028 33.5676 45.3204 33.4248 44.6299 33.4181H35.1972C34.7551 33.4183 34.3229 33.2871 33.9555 33.0412C33.5881 32.7954 33.3021 32.4459 33.1336 32.0372C32.9651 31.6285 32.9219 31.179 33.0093 30.7456C33.0968 30.3123 33.311 29.9147 33.6248 29.6033C34.02 29.2134 34.5423 28.9787 35.0962 28.9421V27.6196C34.1861 27.6418 33.3174 28.0048 32.662 28.6367C32.2697 29.0224 31.9738 29.495 31.7984 30.0164C31.623 30.5378 31.573 31.0932 31.6525 31.6375V31.7902H31.4998C30.9546 31.7097 30.3981 31.7599 29.8761 31.9367C29.3541 32.1136 28.8817 32.412 28.4977 32.8073C27.8924 33.4211 27.5332 34.2355 27.4882 35.0964H28.8069C28.8552 34.5747 29.0889 34.0876 29.4656 33.7235C29.8834 33.308 30.4487 33.0747 31.0379 33.0747C31.6272 33.0747 32.1925 33.308 32.6103 33.7235C32.977 34.0947 33.2088 34.5781 33.269 35.0964V44.9077C33.3265 46.2503 33.8879 47.5218 34.8413 48.4688C35.3305 48.968 35.9145 49.3646 36.5589 49.6354C37.2033 49.9061 37.8952 50.0456 38.5942 50.0456C39.2932 50.0456 39.9851 49.9061 40.6296 49.6354C41.274 49.3646 41.8579 48.968 42.3471 48.4688C42.8989 47.912 43.3213 47.2405 43.5843 46.5021C43.8474 45.7636 43.9445 44.9763 43.869 44.196V44.0433H44.1214C45.2157 44.1596 46.319 43.9308 47.2769 43.3889C48.2347 42.847 48.9992 42.0192 49.4632 41.0212C49.9271 40.0233 50.0674 38.9053 49.8644 37.8237C49.6614 36.742 49.1253 35.7509 48.3311 34.9892L48.3323 34.9955ZM42.6008 42.7776H41.5357C41.4106 42.7757 41.2874 42.7476 41.1739 42.695C41.0604 42.6424 40.9592 42.5665 40.877 42.4722C40.7505 42.3391 40.6607 42.1753 40.6165 41.997C40.5723 41.8187 40.5751 41.632 40.6246 41.4552C40.677 41.3022 40.7635 41.1631 40.8777 41.0485C40.9918 40.934 41.1305 40.8469 41.2833 40.7939C41.4591 40.7451 41.6444 40.7427 41.8214 40.787C41.9983 40.8312 42.1608 40.9206 42.2929 41.0463C42.4421 41.2023 42.5471 41.3953 42.597 41.6053L42.6008 42.7776ZM47.4187 41.6078C47.0563 41.9802 46.6225 42.2756 46.1434 42.4766C45.6642 42.6776 45.1495 42.78 44.6299 42.7776H44.0191V41.7605C44.0125 41.1294 43.7572 40.5263 43.3087 40.0822C43.0721 39.851 42.7976 39.6619 42.4973 39.5232C41.9755 39.3197 41.3963 39.3197 40.8745 39.5232L40.5704 39.6759H40.4177C40.256 39.7819 40.1033 39.901 39.9609 40.0317C39.7975 40.1961 39.6605 40.3847 39.5545 40.5908L39.4018 40.8961C39.1996 41.4373 39.1996 42.0333 39.4018 42.5745C39.5215 42.8857 39.7125 43.1645 39.9596 43.3884C40.4028 43.8048 40.9758 44.0561 41.5824 44.1001H42.5919V44.6049C42.6118 45.1505 42.5185 45.6943 42.3178 46.2021C42.1171 46.7099 41.8135 47.1706 41.4259 47.5552C40.6705 48.3002 39.654 48.7209 38.5929 48.7275C37.5316 48.7138 36.5156 48.2954 35.7524 47.5577C35.3799 47.1833 35.0851 46.7389 34.885 46.2501C34.6849 45.7613 34.5834 45.2378 34.5864 44.7096V34.6863H44.6816C45.4681 34.7194 46.2282 34.9797 46.8698 35.4358C47.5115 35.8919 48.0072 36.5241 48.2969 37.2561C48.5866 37.988 48.658 38.7883 48.5024 39.5599C48.3467 40.3316 47.9708 41.0416 47.42 41.6041L47.4187 41.6078Z" fill="#FF417A"/>
</g>
<path d="M76.0273 19.3608C76.0273 21.8354 75.354 23.729 74.0073 25.0415C72.6675 26.3472 70.7363 27 68.2139 27H64.061V12.0088H68.6548C70.9858 12.0088 72.7974 12.6548 74.0894 13.9468C75.3813 15.2388 76.0273 17.0435 76.0273 19.3608ZM74.1816 19.4224C74.1816 17.4673 73.6895 15.9941 72.7051 15.0029C71.7275 14.0117 70.2715 13.5161 68.3369 13.5161H65.8042V25.4927H67.9268C70.0049 25.4927 71.5669 24.9834 72.6128 23.9648C73.6587 22.9395 74.1816 21.4253 74.1816 19.4224Z" fill="#292933"/>
<path d="M84.8404 27V12.0088H86.5835V27H84.8404Z" fill="#292933"/>
<path d="M102.585 13.3521C100.937 13.3521 99.6348 13.9023 98.6778 15.0029C97.7276 16.0967 97.2525 17.5972 97.2525 19.5044C97.2525 21.4663 97.7105 22.9839 98.6265 24.0571C99.5494 25.1235 100.862 25.6567 102.564 25.6567C103.61 25.6567 104.803 25.4688 106.143 25.0928V26.6206C105.104 27.0103 103.822 27.2051 102.297 27.2051C100.089 27.2051 98.3839 26.5352 97.1807 25.1953C95.9845 23.8555 95.3863 21.9517 95.3863 19.4839C95.3863 17.939 95.6734 16.5854 96.2476 15.4233C96.8287 14.2612 97.6627 13.3657 98.7496 12.7368C99.8433 12.1079 101.128 11.7935 102.605 11.7935C104.177 11.7935 105.551 12.0806 106.727 12.6548L105.989 14.1519C104.854 13.6187 103.719 13.3521 102.585 13.3521Z" fill="#292933"/>
<path d="M123.231 27H114.874V12.0088H123.231V13.5571H116.617V18.3867H122.831V19.9248H116.617V25.4414H123.231V27Z" fill="#292933"/>
<path d="M143.733 27H141.744L133.551 14.4185H133.469C133.578 15.895 133.633 17.2485 133.633 18.479V27H132.023V12.0088H133.992L142.164 24.5391H142.246C142.233 24.3545 142.202 23.7632 142.154 22.7651C142.106 21.7603 142.089 21.0425 142.103 20.6118V12.0088H143.733V27Z" fill="#292933"/>
<path d="M157.929 27H156.186V13.5571H151.439V12.0088H162.677V13.5571H157.929V27Z" fill="#292933"/>
<path d="M172.146 20.7656V27H170.403V12.0088H174.515C176.354 12.0088 177.711 12.3608 178.586 13.0649C179.468 13.769 179.908 14.8286 179.908 16.2437C179.908 18.2261 178.904 19.5659 176.894 20.2632L180.965 27H178.904L175.274 20.7656H172.146ZM172.146 19.2686H174.535C175.766 19.2686 176.668 19.0259 177.242 18.5405C177.817 18.0483 178.104 17.3135 178.104 16.3359C178.104 15.3447 177.81 14.6304 177.222 14.1929C176.641 13.7554 175.704 13.5366 174.412 13.5366H172.146V19.2686Z" fill="#292933"/>
<path d="M198.268 27L196.402 22.2319H190.393L188.547 27H186.783L192.71 11.9473H194.177L200.073 27H198.268ZM195.858 20.6631L194.115 16.0181C193.889 15.4302 193.657 14.709 193.418 13.8545C193.267 14.5107 193.052 15.2319 192.772 16.0181L191.008 20.6631H195.858Z" fill="#292933"/>
<path d="M69.1777 41.4209C69.1777 42.5635 68.888 43.4619 68.3086 44.1162C67.7324 44.7705 66.93 45.0977 65.9014 45.0977C64.8499 45.0977 64.0378 44.777 63.4648 44.1357C62.8952 43.4912 62.6104 42.583 62.6104 41.4111C62.6104 40.249 62.8968 39.349 63.4697 38.7109C64.0426 38.0697 64.8564 37.749 65.9111 37.749C66.9365 37.749 67.7373 38.0745 68.3135 38.7256C68.8896 39.3766 69.1777 40.2751 69.1777 41.4209ZM63.4893 41.4209C63.4893 42.3877 63.6943 43.1217 64.1045 43.623C64.5179 44.1211 65.1169 44.3701 65.9014 44.3701C66.6924 44.3701 67.2897 44.1211 67.6934 43.623C68.097 43.125 68.2988 42.391 68.2988 41.4209C68.2988 40.4606 68.097 39.7331 67.6934 39.2383C67.293 38.7402 66.6989 38.4912 65.9111 38.4912C65.1201 38.4912 64.5179 38.7419 64.1045 39.2432C63.6943 39.7412 63.4893 40.4671 63.4893 41.4209Z" fill="#292933"/>
<path d="M80.1033 42.9199C80.1033 43.6296 79.8917 44.1536 79.4686 44.4922C79.0486 44.8307 78.4139 45 77.5643 45H75.4744V37.8613H79.6834V38.5986H76.3045V40.9082H77.4129C78.0411 40.9082 78.5522 40.9814 78.9461 41.1279C79.34 41.2712 79.6313 41.4844 79.8201 41.7676C80.0089 42.0508 80.1033 42.4349 80.1033 42.9199ZM76.3045 44.2822H77.4715C78.09 44.2822 78.5392 44.1764 78.8191 43.9648C79.1023 43.7533 79.2439 43.4049 79.2439 42.9199C79.2439 42.4577 79.1007 42.1289 78.8143 41.9336C78.5278 41.7383 78.0281 41.6406 77.3152 41.6406H76.3045V44.2822Z" fill="#292933"/>
<path d="M86.317 37.8613H87.0934V41.8311C87.0934 42.5635 87.0706 43.2259 87.025 43.8184H87.0641L91.068 37.8613H91.9762V45H91.1949V41.0693C91.1949 40.415 91.2226 39.7282 91.2779 39.0088H91.234L87.2252 45H86.317V37.8613Z" fill="#292933"/>
<path d="M103.161 39.9414C103.161 40.6641 102.913 41.2207 102.418 41.6113C101.927 41.9987 101.222 42.1924 100.304 42.1924H99.4643V45H98.6342V37.8613H100.485C102.269 37.8613 103.161 38.5547 103.161 39.9414ZM99.4643 41.4795H100.211C100.947 41.4795 101.479 41.3607 101.808 41.123C102.137 40.8854 102.301 40.5046 102.301 39.9805C102.301 39.5085 102.147 39.1569 101.837 38.9258C101.528 38.6947 101.046 38.5791 100.392 38.5791H99.4643V41.4795Z" fill="#292933"/>
<path d="M113.847 45L112.958 42.7295H110.097L109.218 45H108.378L111.2 37.832H111.899L114.706 45H113.847ZM112.699 41.9824L111.869 39.7705C111.762 39.4906 111.651 39.1471 111.537 38.7402C111.466 39.0527 111.363 39.3962 111.23 39.7705L110.39 41.9824H112.699Z" fill="#292933"/>
<path d="M120.397 37.8613H121.174V41.8311C121.174 42.5635 121.151 43.2259 121.105 43.8184H121.145L125.148 37.8613H126.057V45H125.275V41.0693C125.275 40.415 125.303 39.7282 125.358 39.0088H125.314L121.306 45H120.397V37.8613ZM123.356 37.29C122.754 37.29 122.315 37.1745 122.038 36.9434C121.761 36.709 121.607 36.3249 121.574 35.791H122.336C122.365 36.1296 122.453 36.3656 122.6 36.499C122.749 36.6325 123.008 36.6992 123.376 36.6992C123.711 36.6992 123.959 36.6276 124.118 36.4844C124.281 36.3411 124.38 36.11 124.416 35.791H125.183C125.144 36.3053 124.979 36.6846 124.689 36.9287C124.4 37.1696 123.955 37.29 123.356 37.29Z" fill="#292933"/>
<path d="M143.069 38.501C142.284 38.501 141.664 38.763 141.209 39.2871C140.756 39.8079 140.53 40.5225 140.53 41.4307C140.53 42.3649 140.748 43.0876 141.184 43.5986C141.624 44.1064 142.249 44.3604 143.059 44.3604C143.557 44.3604 144.125 44.2708 144.763 44.0918V44.8193C144.268 45.0049 143.658 45.0977 142.932 45.0977C141.881 45.0977 141.069 44.7786 140.496 44.1406C139.926 43.5026 139.641 42.596 139.641 41.4209C139.641 40.6852 139.778 40.0407 140.051 39.4873C140.328 38.9339 140.725 38.5075 141.243 38.208C141.764 37.9085 142.376 37.7588 143.079 37.7588C143.827 37.7588 144.482 37.8955 145.042 38.1689L144.69 38.8818C144.15 38.6279 143.609 38.501 143.069 38.501Z" fill="#292933"/>
<path d="M155 45H151.021V37.8613H155V38.5986H151.851V40.8984H154.81V41.6309H151.851V44.2578H155V45Z" fill="#292933"/>
<path d="M165.814 39.9414C165.814 40.6641 165.566 41.2207 165.071 41.6113C164.58 41.9987 163.875 42.1924 162.957 42.1924H162.117V45H161.287V37.8613H163.138C164.922 37.8613 165.814 38.5547 165.814 39.9414ZM162.117 41.4795H162.864C163.6 41.4795 164.132 41.3607 164.461 41.123C164.79 40.8854 164.954 40.5046 164.954 39.9805C164.954 39.5085 164.8 39.1569 164.49 38.9258C164.181 38.6947 163.699 38.5791 163.045 38.5791H162.117V41.4795Z" fill="#292933"/>
<path d="M177.34 44.248H178.18V46.8604H177.394V45H172.013V37.8613H172.843V44.248H176.51V37.8613H177.34V44.248Z" fill="#292933"/>
<path d="M188.065 45H184.086V37.8613H188.065V38.5986H184.916V40.8984H187.875V41.6309H184.916V44.2578H188.065V45Z" fill="#292933"/>
<path d="M197.511 45L195.089 38.6719H195.05C195.096 39.1732 195.119 39.7689 195.119 40.459V45H194.352V37.8613H195.602L197.863 43.75H197.902L200.182 37.8613H201.422V45H200.592V40.4004C200.592 39.873 200.615 39.3001 200.661 38.6816H200.622L198.18 45H197.511Z" fill="#292933"/>
<defs>
<clipPath id="clip0_11_57">
<rect width="53" height="53" fill="white"/>
</clipPath>
</defs>
</svg>
